{
    "asset" : {
        "generator" : "Khronos glTF Blender I/O v0.9.35",
        "version" : "2.0"
    },
    "scene" : 1,
    "scenes" : [
        {
            "name" : "Scene"
        },
        {
            "name" : "Scene.001",
            "nodes" : [
                0
            ]
        }
    ],
    "nodes" : [
        {
            "mesh" : 0,
            "name" : "pope"
        }
    ],
    "materials" : [
        {
            "doubleSided" : true,
            "name" : "lowpolypope",
            "pbrMetallicRoughness" : {
                "baseColorTexture" : {
                    "index" : 0,
                    "texCoord" : 0
                },
                "metallicFactor" : 0,
                "roughnessFactor" : 0.5
            }
        }
    ],
    "meshes" : [
        {
            "name" : "pope",
            "primitives" : [
                {
                    "attributes" : {
                        "POSITION" : 0,
                        "NORMAL" : 1,
                        "TEXCOORD_0" : 2
                    },
                    "indices" : 3,
                    "material" : 0
                }
            ]
        }
    ],
    "textures" : [
        {
            "source" : 0
        }
    ],
    "images" : [
        {
            "mimeType" : "image/png",
            "name" : "highResPopeTex",
            "uri" : "highResPopeTex.png"
        }
    ],
    "accessors" : [
        {
            "bufferView" : 0,
            "componentType" : 5126,
            "count" : 2713,
            "max" : [
                2.661423444747925,
                9.132894515991211,
                2.2221713066101074
            ],
            "min" : [
                -2.661423444747925,
                -0.4462846517562866,
                -2.4260830879211426
            ],
            "type" : "VEC3"
        },
        {
            "bufferView" : 1,
            "componentType" : 5126,
            "count" : 2713,
            "type" : "VEC3"
        },
        {
            "bufferView" : 2,
            "componentType" : 5126,
            "count" : 2713,
            "type" : "VEC2"
        },
        {
            "bufferView" : 3,
            "componentType" : 5123,
            "count" : 8262,
            "type" : "SCALAR"
        }
    ],
    "bufferViews" : [
        {
            "buffer" : 0,
            "byteLength" : 32556,
            "byteOffset" : 0
        },
        {
            "buffer" : 0,
            "byteLength" : 32556,
            "byteOffset" : 32556
        },
        {
            "buffer" : 0,
            "byteLength" : 21704,
            "byteOffset" : 65112
        },
        {
            "buffer" : 0,
            "byteLength" : 16524,
            "byteOffset" : 86816
        }
    ],
    "buffers" : [
        {
            "byteLength" : 103340,
            "uri" : "lowpolypope_2.bin"
        }
    ]
}
